<svg xmlns="http://www.w3.org/2000/svg" style="display: none;">
  <!-- Coder logo -->
  <symbol id="icon-coder-logo" viewBox="0 0 1320.81 200">
    <g>
      <rect class="cls-1" x="1158.63" y="5.41" width="162.18" height="189.24" />
      <polygon class="cls-1"
        points="745.18 194.59 905.99 194.59 905.99 154.05 806.8 154.05 806.8 116.76 891.93 116.76 891.93 80.81 806.8 80.81 806.8 44.59 904.1 44.59 904.1 5.4 745.18 5.4 745.18 194.59" />
      <path class="cls-1"
        d="M236.49,115.13l-61.62-1.35c-2.7,27.57-26.57,44.86-51.62,44.86-34.33,0-59.73-22.97-59.73-58.65s25.41-58.99,59.73-59.73c25.05-.54,49.46,17.57,51.08,45.14l61.62-1.89C234.6,33.78,192.16,0,123.25,0S0,38.92,0,100s51.89,100,123.25,100,111.62-34.32,113.24-84.87Z" />
      <path class="cls-1"
        d="M496.14,100c0-60.27-48.83-100-118.92-100s-118.92,39.73-118.92,100,48.83,100,118.92,100,118.92-39.46,118.92-100ZM377.22,39.73c32.77,0,55.41,24.59,55.41,60.27s-22.63,59.19-55.41,59.19-55.4-24.06-55.4-59.19,22.87-60.27,55.4-60.27Z" />
      <path class="cls-1"
        d="M517.95,194.59h78.38c75.95,0,127.03-35.4,127.03-94.59S672.28,5.4,596.33,5.4h-78.38v189.19ZM660.39,100c0,36.22-26.76,56.76-66.76,56.76h-13.51V42.97h13.51c40,0,66.76,20.27,66.76,57.03Z" />
      <path class="cls-1"
        d="M933.25,194.59h62.16v-63.51h16.49c19.73,0,37.29,7.84,42.43,29.73l5.95,33.78h71.08l-7.57-36.49c-7.33-29.56-25.05-48.96-62.43-51.36v-1.61c38.38,0,61.89-17.3,61.89-45.13,0-33.78-34.59-54.6-91.35-54.6h-98.65v189.19ZM1061.09,69.73c0,17.57-13.24,28.11-34.59,28.11h-31.08v-55.95h31.08c21.35,0,34.59,10.54,34.59,27.84Z" />
    </g>
  </symbol>

  <!-- Checkmark circle (success) -->
  <symbol id="icon-checkmark" viewBox="0 0 16 16">
    <path fill-rule="evenodd"
      d="M8 15A7 7 0 1 0 8 1a7 7 0 0 0 0 14Zm3.844-8.791a.75.75 0 0 0-1.188-.918l-3.7 4.79-1.649-1.833a.75.75 0 1 0-1.114 1.004l2.25 2.5a.75.75 0 0 0 1.15-.043l4.25-5.5Z"
      clip-rule="evenodd" />
  </symbol>

  <!-- Warning triangle -->
  <symbol id="icon-warning" viewBox="0 0 16 16">
    <path fill-rule="evenodd"
      d="M6.701 2.25c.577-1 2.02-1 2.598 0l5.196 9a1.5 1.5 0 0 1-1.299 2.25H2.804a1.5 1.5 0 0 1-1.3-2.25l5.197-9ZM8 4a.75.75 0 0 1 .75.75v3a.75.75 0 1 1-1.5 0v-3A.75.75 0 0 1 8 4Zm0 8a1 1 0 1 0 0-2 1 1 0 0 0 0 2Z"
      clip-rule="evenodd" />
  </symbol>

  <!-- Error circle -->
  <symbol id="icon-error" viewBox="0 0 16 16">
    <path fill-rule="evenodd"
      d="M8 15A7 7 0 1 0 8 1a7 7 0 0 0 0 14ZM8 4a.75.75 0 0 1 .75.75v3a.75.75 0 0 1-1.5 0v-3A.75.75 0 0 1 8 4Zm0 8a1 1 0 1 0 0-2 1 1 0 0 0 0 2Z"
      clip-rule="evenodd" />
  </symbol>

  <!-- Wrench/tool icon -->
  <symbol id="icon-wrench" viewBox="0 0 16 16">
    <path fill-rule="evenodd"
      d="M15 4.5A3.5 3.5 0 0 1 11.435 8c-.99-.019-2.093.132-2.7.913l-4.13 5.31a2.015 2.015 0 1 1-2.827-2.828l5.309-4.13c.78-.607.932-1.71.914-2.7L8 4.5a3.5 3.5 0 0 1 4.477-3.362c.325.094.39.497.15.736L10.6 3.902a.48.48 0 0 0-.033.653c.271.314.565.608.879.879a.48.48 0 0 0 .653-.033l2.027-2.027c.239-.24.642-.175.736.15.09.31.138.637.138.976ZM3.75 13a.75.75 0 1 1-1.5 0 .75.75 0 0 1 1.5 0Z"
      clip-rule="evenodd" />
    <path
      d="M11.5 9.5c.313 0 .62-.029.917-.084l1.962 1.962a2.121 2.121 0 0 1-3 3l-2.81-2.81 1.35-1.734c.05-.064.158-.158.426-.233.278-.078.639-.11 1.062-.102l.093.001ZM5 4l1.446 1.445a2.256 2.256 0 0 1-.047.21c-.075.268-.169.377-.233.427l-.61.474L4 5H2.655a.25.25 0 0 1-.224-.139l-1.35-2.7a.25.25 0 0 1 .047-.289l.745-.745a.25.25 0 0 1 .289-.047l2.7 1.35A.25.25 0 0 1 5 2.654V4Z" />
  </symbol>

  <!-- Tokens icon -->
  <symbol id="icon-tokens" viewBox="0 0 16 16">
    <path fill="currentColor" d="M8 7c3.314 0 6-1.343 6-3s-2.686-3-6-3-6 1.343-6 3 2.686 3 6 3Z" />
    <path fill="currentColor"
      d="M8 8.5c1.84 0 3.579-.37 4.914-1.037A6.33 6.33 0 0 0 14 6.78V8c0 1.657-2.686 3-6 3S2 9.657 2 8V6.78c.346.273.72.5 1.087.683C4.42 8.131 6.16 8.5 8 8.5Z" />
    <path fill="currentColor"
      d="M8 12.5c1.84 0 3.579-.37 4.914-1.037.366-.183.74-.41 1.086-.684V12c0 1.657-2.686 3-6 3s-6-1.343-6-3v-1.22c.346.273.72.5 1.087.683C4.42 12.131 6.16 12.5 8 12.5Z" />
  </symbol>

  <!-- Clock icon -->
  <symbol id="icon-clock" viewBox="0 0 16 16">
    <path fill-rule="evenodd"
      d="M1 8a7 7 0 1 1 14 0A7 7 0 0 1 1 8Zm7.75-4.25a.75.75 0 0 0-1.5 0V8c0 .414.336.75.75.75h3.25a.75.75 0 0 0 0-1.5h-2.5v-3.5Z"
      clip-rule="evenodd" />
  </symbol>

  <!-- Dollar icon -->
  <symbol id="icon-dollar" viewBox="0 0 16 16">
    <path
      d="M6.375 5.5h.875v1.75h-.875a.875.875 0 1 1 0-1.75ZM8.75 10.5V8.75h.875a.875.875 0 0 1 0 1.75H8.75Z" />
    <path fill-rule="evenodd"
      d="M15 8A7 7 0 1 1 1 8a7 7 0 0 1 14 0ZM7.25 3.75a.75.75 0 0 1 1.5 0V4h2.5a.75.75 0 0 1 0 1.5h-2.5v1.75h.875a2.375 2.375 0 1 1 0 4.75H8.75v.25a.75.75 0 0 1-1.5 0V12h-2.5a.75.75 0 0 1 0-1.5h2.5V8.75h-.875a2.375 2.375 0 1 1 0-4.75h.875v-.25Z"
      clip-rule="evenodd" />
  </symbol>

  <!-- Arrow top-right (external link) -->
  <symbol id="icon-arrow-top-right" viewBox="0 0 16 16">
    <path fill-rule="evenodd"
      d="M4.22 11.78a.75.75 0 0 1 0-1.06L9.44 5.5H5.75a.75.75 0 0 1 0-1.5h5.5a.75.75 0 0 1 .75.75v5.5a.75.75 0 0 1-1.5 0V6.56l-5.22 5.22a.75.75 0 0 1-1.06 0Z"
      clip-rule="evenodd" />
  </symbol>
</svg>
