<svg xmlns="http://www.w3.org/2000/svg" viewBox="0 0 90 90">
  <style>
    /* Light mode - dark cards */
    .cards {
      fill: #27272a;
    }

    /* Dark mode - light cards */
    @media (prefers-color-scheme: dark) {
      .cards {
        fill: #fafafa;
      }
    }
  </style>

  <g class="cards" transform="translate(0, 90) scale(0.1, -0.1)">
    <!-- Front card with spade symbol -->
    <path d="M110 790 c-19 -19 -20 -33 -20 -340 0 -307 1 -321 20 -340 19 -19 33
-20 250 -20 217 0 231 1 250 20 19 19 20 33 20 340 0 307 -1 321 -20 340 -19
19 -33 20 -250 20 -217 0 -231 -1 -250 -20z m332 -198 c106 -113 122 -170 63
-229 -33 -33 -39 -35 -80 -30 -25 2 -45 1 -45 -2 0 -4 16 -22 35 -41 19 -19
35 -38 35 -42 0 -4 -40 -8 -90 -8 -49 0 -90 4 -90 8 0 4 16 23 35 42 19 19 35
37 35 41 0 3 -20 4 -45 2 -41 -5 -47 -3 -80 30 -40 40 -44 70 -18 125 23 48
141 172 163 172 10 0 46 -31 82 -68z"/>

    <!-- Back card (offset) -->
    <path d="M688 459 c2 -281 0 -336 -13 -361 -19 -39 -19 -38 9 -38 50 0 59 28
110 359 47 300 48 312 31 331 -10 11 -34 22 -54 25 -20 4 -47 8 -61 11 l-25 5
3 -332z"/>
  </g>
</svg>
