<svg xmlns="http://www.w3.org/2000/svg" style="display: none;">
  <!-- Coder logo -->
  <symbol id="icon-coder-logo" viewBox="0 0 1320.81 200">
    <g>
      <rect class="cls-1" x="1158.63" y="5.41" width="162.18" height="189.24" />
      <polygon class="cls-1"
        points="745.18 194.59 905.99 194.59 905.99 154.05 806.8 154.05 806.8 116.76 891.93 116.76 891.93 80.81 806.8 80.81 806.8 44.59 904.1 44.59 904.1 5.4 745.18 5.4 745.18 194.59" />
      <path class="cls-1"
        d="M236.49,115.13l-61.62-1.35c-2.7,27.57-26.57,44.86-51.62,44.86-34.33,0-59.73-22.97-59.73-58.65s25.41-58.99,59.73-59.73c25.05-.54,49.46,17.57,51.08,45.14l61.62-1.89C234.6,33.78,192.16,0,123.25,0S0,38.92,0,100s51.89,100,123.25,100,111.62-34.32,113.24-84.87Z" />
      <path class="cls-1"
        d="M496.14,100c0-60.27-48.83-100-118.92-100s-118.92,39.73-118.92,100,48.83,100,118.92,100,118.92-39.46,118.92-100ZM377.22,39.73c32.77,0,55.41,24.59,55.41,60.27s-22.63,59.19-55.41,59.19-55.4-24.06-55.4-59.19,22.87-60.27,55.4-60.27Z" />
      <path class="cls-1"
        d="M517.95,194.59h78.38c75.95,0,127.03-35.4,127.03-94.59S672.28,5.4,596.33,5.4h-78.38v189.19ZM660.39,100c0,36.22-26.76,56.76-66.76,56.76h-13.51V42.97h13.51c40,0,66.76,20.27,66.76,57.03Z" />
      <path class="cls-1"
        d="M933.25,194.59h62.16v-63.51h16.49c19.73,0,37.29,7.84,42.43,29.73l5.95,33.78h71.08l-7.57-36.49c-7.33-29.56-25.05-48.96-62.43-51.36v-1.61c38.38,0,61.89-17.3,61.89-45.13,0-33.78-34.59-54.6-91.35-54.6h-98.65v189.19ZM1061.09,69.73c0,17.57-13.24,28.11-34.59,28.11h-31.08v-55.95h31.08c21.35,0,34.59,10.54,34.59,27.84Z" />
    </g>
  </symbol>

  <!-- Checkmark circle (success) -->
  <symbol id="icon-checkmark" viewBox="0 0 16 16">
    <path fill-rule="evenodd"
      d="M8 15A7 7 0 1 0 8 1a7 7 0 0 0 0 14Zm3.844-8.791a.75.75 0 0 0-1.188-.918l-3.7 4.79-1.649-1.833a.75.75 0 1 0-1.114 1.004l2.25 2.5a.75.75 0 0 0 1.15-.043l4.25-5.5Z"
      clip-rule="evenodd" />
  </symbol>

  <!-- Warning triangle -->
  <symbol id="icon-warning" viewBox="0 0 16 16">
    <path fill-rule="evenodd"
      d="M6.701 2.25c.577-1 2.02-1 2.598 0l5.196 9a1.5 1.5 0 0 1-1.299 2.25H2.804a1.5 1.5 0 0 1-1.3-2.25l5.197-9ZM8 4a.75.75 0 0 1 .75.75v3a.75.75 0 1 1-1.5 0v-3A.75.75 0 0 1 8 4Zm0 8a1 1 0 1 0 0-2 1 1 0 0 0 0 2Z"
      clip-rule="evenodd" />
  </symbol>

  <!-- Error circle -->
  <symbol id="icon-error" viewBox="0 0 16 16">
    <path fill-rule="evenodd"
      d="M8 15A7 7 0 1 0 8 1a7 7 0 0 0 0 14ZM8 4a.75.75 0 0 1 .75.75v3a.75.75 0 0 1-1.5 0v-3A.75.75 0 0 1 8 4Zm0 8a1 1 0 1 0 0-2 1 1 0 0 0 0 2Z"
      clip-rule="evenodd" />
  </symbol>

  <!-- Wrench/tool icon -->
  <symbol id="icon-wrench" viewBox="0 0 16 16">
    <path fill-rule="evenodd"
      d="M15 4.5A3.5 3.5 0 0 1 11.435 8c-.99-.019-2.093.132-2.7.913l-4.13 5.31a2.015 2.015 0 1 1-2.827-2.828l5.309-4.13c.78-.607.932-1.71.914-2.7L8 4.5a3.5 3.5 0 0 1 4.477-3.362c.325.094.39.497.15.736L10.6 3.902a.48.48 0 0 0-.033.653c.271.314.565.608.879.879a.48.48 0 0 0 .653-.033l2.027-2.027c.239-.24.642-.175.736.15.09.31.138.637.138.976ZM3.75 13a.75.75 0 1 1-1.5 0 .75.75 0 0 1 1.5 0Z"
      clip-rule="evenodd" />
    <path
      d="M11.5 9.5c.313 0 .62-.029.917-.084l1.962 1.962a2.121 2.121 0 0 1-3 3l-2.81-2.81 1.35-1.734c.05-.064.158-.158.426-.233.278-.078.639-.11 1.062-.102l.093.001ZM5 4l1.446 1.445a2.256 2.256 0 0 1-.047.21c-.075.268-.169.377-.233.427l-.61.474L4 5H2.655a.25.25 0 0 1-.224-.139l-1.35-2.7a.25.25 0 0 1 .047-.289l.745-.745a.25.25 0 0 1 .289-.047l2.7 1.35A.25.25 0 0 1 5 2.654V4Z" />
  </symbol>

  <!-- Tokens icon -->
  <symbol id="icon-tokens" viewBox="0 0 16 16">
    <path fill="currentColor" d="M8 7c3.314 0 6-1.343 6-3s-2.686-3-6-3-6 1.343-6 3 2.686 3 6 3Z" />
    <path fill="currentColor"
      d="M8 8.5c1.84 0 3.579-.37 4.914-1.037A6.33 6.33 0 0 0 14 6.78V8c0 1.657-2.686 3-6 3S2 9.657 2 8V6.78c.346.273.72.5 1.087.683C4.42 8.131 6.16 8.5 8 8.5Z" />
    <path fill="currentColor"
      d="M8 12.5c1.84 0 3.579-.37 4.914-1.037.366-.183.74-.41 1.086-.684V12c0 1.657-2.686 3-6 3s-6-1.343-6-3v-1.22c.346.273.72.5 1.087.683C4.42 12.131 6.16 12.5 8 12.5Z" />
  </symbol>

  <!-- Clock icon -->
  <symbol id="icon-clock" viewBox="0 0 16 16">
    <path fill-rule="evenodd"
      d="M1 8a7 7 0 1 1 14 0A7 7 0 0 1 1 8Zm7.75-4.25a.75.75 0 0 0-1.5 0V8c0 .414.336.75.75.75h3.25a.75.75 0 0 0 0-1.5h-2.5v-3.5Z"
      clip-rule="evenodd" />
  </symbol>

  <!-- Dollar icon -->
  <symbol id="icon-dollar" viewBox="0 0 16 16">
    <path
      d="M6.375 5.5h.875v1.75h-.875a.875.875 0 1 1 0-1.75ZM8.75 10.5V8.75h.875a.875.875 0 0 1 0 1.75H8.75Z" />
    <path fill-rule="evenodd"
      d="M15 8A7 7 0 1 1 1 8a7 7 0 0 1 14 0ZM7.25 3.75a.75.75 0 0 1 1.5 0V4h2.5a.75.75 0 0 1 0 1.5h-2.5v1.75h.875a2.375 2.375 0 1 1 0 4.75H8.75v.25a.75.75 0 0 1-1.5 0V12h-2.5a.75.75 0 0 1 0-1.5h2.5V8.75h-.875a2.375 2.375 0 1 1 0-4.75h.875v-.25Z"
      clip-rule="evenodd" />
  </symbol>

  <!-- Arrow top-right (external link) -->
  <symbol id="icon-arrow-top-right" viewBox="0 0 16 16">
    <path fill-rule="evenodd"
      d="M4.22 11.78a.75.75 0 0 1 0-1.06L9.44 5.5H5.75a.75.75 0 0 1 0-1.5h5.5a.75.75 0 0 1 .75.75v5.5a.75.75 0 0 1-1.5 0V6.56l-5.22 5.22a.75.75 0 0 1-1.06 0Z"
      clip-rule="evenodd" />
  </symbol>

  <!-- Discord logo -->
  <symbol id="icon-discord" viewBox="0 0 50 50">
    <path d="M 41.625 10.769531 C 37.644531 7.566406 31.347656 7.023438 31.078125 7.003906 C 30.660156 6.96875 30.261719 7.203125 30.089844 7.589844 C 30.074219 7.613281 29.9375 7.929688 29.785156 8.421875 C 32.417969 8.867188 35.652344 9.761719 38.578125 11.578125 C 39.046875 11.867188 39.191406 12.484375 38.902344 12.953125 C 38.710938 13.261719 38.386719 13.429688 38.050781 13.429688 C 37.871094 13.429688 37.6875 13.378906 37.523438 13.277344 C 32.492188 10.15625 26.210938 10 25 10 C 23.789063 10 17.503906 10.15625 12.476563 13.277344 C 12.007813 13.570313 11.390625 13.425781 11.101563 12.957031 C 10.808594 12.484375 10.953125 11.871094 11.421875 11.578125 C 14.347656 9.765625 17.582031 8.867188 20.214844 8.425781 C 20.0625 7.929688 19.925781 7.617188 19.914063 7.589844 C 19.738281 7.203125 19.34375 6.960938 18.921875 7.003906 C 18.652344 7.023438 12.355469 7.566406 8.320313 10.8125 C 6.214844 12.761719 2 24.152344 2 34 C 2 34.175781 2.046875 34.34375 2.132813 34.496094 C 5.039063 39.605469 12.972656 40.941406 14.78125 41 C 14.789063 41 14.800781 41 14.8125 41 C 15.132813 41 15.433594 40.847656 15.621094 40.589844 L 17.449219 38.074219 C 12.515625 36.800781 9.996094 34.636719 9.851563 34.507813 C 9.4375 34.144531 9.398438 33.511719 9.765625 33.097656 C 10.128906 32.683594 10.761719 32.644531 11.175781 33.007813 C 11.234375 33.0625 15.875 37 25 37 C 34.140625 37 38.78125 33.046875 38.828125 33.007813 C 39.242188 32.648438 39.871094 32.683594 40.238281 33.101563 C 40.601563 33.515625 40.5625 34.144531 40.148438 34.507813 C 40.003906 34.636719 37.484375 36.800781 32.550781 38.074219 L 34.378906 40.589844 C 34.566406 40.847656 34.867188 41 35.1875 41 C 35.199219 41 35.210938 41 35.21875 41 C 37.027344 40.941406 44.960938 39.605469 47.867188 34.496094 C 47.953125 34.34375 48 34.175781 48 34 C 48 24.152344 43.785156 12.761719 41.625 10.769531 Z M 18.5 30 C 16.566406 30 15 28.210938 15 26 C 15 23.789063 16.566406 22 18.5 22 C 20.433594 22 22 23.789063 22 26 C 22 28.210938 20.433594 30 18.5 30 Z M 31.5 30 C 29.566406 30 28 28.210938 28 26 C 28 23.789063 29.566406 22 31.5 22 C 33.433594 22 35 23.789063 35 26 C 35 28.210938 33.433594 30 31.5 30 Z" />
  </symbol>
</svg>
